<svg xmlns="http://www.w3.org/2000/svg" xmlns:xlink="http://www.w3.org/1999/xlink" width="61" height="61" viewBox="0 0 61 61">
	<defs>
		<style>
			.a{fill:#206c84;}.b{clip-path:url(#a);}
		</style>
		<clipPath id="a">
			<rect class="a" width="61" height="61" transform="translate(1213.369 850.369)" />
		</clipPath>
	</defs>
	<g class="b" transform="translate(-1213.369 -850.369)">
		<g transform="translate(1220.158 857.158)">
			<path class="a" d="M47.831,43.485l-3.3-9.594A23.46,23.46,0,1,0,23.482,46.964h.037a23.554,23.554,0,0,0,10.372-2.43l9.594,3.3a3.446,3.446,0,0,0,1.121.189,3.424,3.424,0,0,0,3.224-4.534ZM45,45a.55.55,0,0,1-.591.137L34.244,41.645a1.423,1.423,0,0,0-1.128.088,20.627,20.627,0,1,1,8.617-8.617,1.423,1.423,0,0,0-.088,1.128L45.138,44.41A.55.55,0,0,1,45,45Z" transform="translate(0 0)" />
			<g transform="translate(21.826 34.021)">
				<path class="a" d="M29.151,43.218a1.424,1.424,0,1,0,1.424,1.424A1.44,1.44,0,0,0,29.151,43.218Z" transform="translate(-27.726 -43.218)" />
			</g>
			<g transform="translate(16.168 11.974)">
				<path class="a" d="M27.622,15.211a7.09,7.09,0,0,0-7.082,7.082,1.424,1.424,0,0,0,2.847,0,4.235,4.235,0,1,1,4.235,4.235A1.424,1.424,0,0,0,26.2,27.952v5.806a1.424,1.424,0,1,0,2.847,0V29.232a7.083,7.083,0,0,0-1.424-14.021Z" transform="translate(-20.539 -15.211)" />
			</g>
		</g>
	</g>
</svg>
